# Blender v2.76 (sub 0) OBJ File: ''
# www.blender.org
mtllib heart removable front.006.mtl
o heart_removable_front.006_heart_removable_front.006_MESH
v -10.904567 47.002670 -18.601562
v -10.906135 46.990471 -18.543533
v -11.235679 46.693352 -18.616409
v -9.781581 46.386497 -16.984161
v -10.000638 46.624329 -17.405716
v -9.538106 46.854187 -17.198395
v -10.496423 45.526276 -16.870880
v -10.610332 45.762962 -17.180634
v -10.107366 45.860580 -16.805893
v -11.028359 46.733475 -18.430862
v -11.237491 46.460426 -18.382797
v -10.471459 46.296700 -17.530609
v -10.978242 45.912277 -17.632416
v -9.385968 47.302910 -17.318390
v -9.457692 47.169418 -17.375793
v -9.653831 47.318695 -17.387009
v -14.459086 34.792496 -13.024004
v -14.771502 34.798042 -13.791185
v -14.585151 35.048729 -13.496126
v -10.321506 45.370003 -16.575897
v -9.277274 46.607765 -16.707901
v -9.555196 46.137825 -16.524765
v -9.772975 45.552040 -16.211609
v -10.091126 45.015030 -16.046509
v -10.804820 46.949341 -18.139618
v -10.847062 46.801147 -18.224167
v -10.561938 44.822304 -16.338165
v -9.238078 47.239807 -17.250076
v -10.345647 44.479874 -15.843567
v -10.791162 45.149750 -16.820404
v -10.767116 46.412544 -17.896011
v -11.239642 46.227058 -18.145828
v -11.011256 46.493111 -18.205536
v -10.233150 46.174004 -17.206970
v -9.127397 47.005058 -16.976807
v -8.825522 47.377823 -16.929184
v -8.877601 47.370506 -16.982864
v -8.938491 47.405312 -17.016052
v -10.369699 46.833961 -17.805695
v -10.406764 46.551453 -17.708069
v -10.643996 46.803986 -17.973053
v -9.762313 47.221024 -17.535736
v -9.811549 47.041931 -17.568161
v -9.928983 47.219460 -17.632553
v -10.984765 46.960472 -18.735855
v -10.072770 46.922302 -17.704941
v -10.171500 46.705353 -17.635803
v -9.109578 47.339363 -17.192459
v -9.077367 47.346359 -17.163513
v -10.215322 47.088509 -17.789474
v -10.055106 47.151772 -17.728973
v -11.426377 46.940735 -18.854218
v -11.072774 47.013588 -18.796951
v -10.590646 46.967484 -17.921555
v -10.827168 47.070778 -18.794220
v -10.489831 47.028694 -17.849976
v -10.792928 47.008110 -18.016174
v -8.972133 47.358826 -17.072296
v -8.874972 47.301537 -16.986679
v -10.934541 47.048538 -18.657608
v -9.142226 47.348442 -17.201630
v -10.167064 47.138008 -17.768082
vn 0.733900 -0.672900 -0.093000
vn 0.839100 -0.357100 -0.410400
vn 0.524000 -0.584300 -0.619700
vn 0.568500 -0.563600 -0.599300
vn 0.560500 -0.543400 -0.624900
vn 0.553200 -0.549000 -0.626600
vn 0.571000 -0.536600 -0.621400
vn 0.557200 -0.545200 -0.626400
vn 0.574200 -0.547600 -0.608600
vn 0.652600 -0.525400 -0.545900
vn 0.534000 -0.599100 -0.596500
vn 0.550800 -0.558500 -0.620200
vn 0.543900 -0.554500 -0.629900
vn 0.281500 0.534800 -0.796700
vn 0.541100 -0.212800 -0.813600
vn 0.095200 0.878400 -0.468400
vn -0.036700 -0.987900 -0.150800
vn -0.033600 -0.922700 -0.384100
vn 0.803300 -0.299100 -0.515000
vn 0.580700 -0.532200 -0.616000
vn 0.572900 -0.584400 -0.574600
vn 0.592600 -0.551100 -0.587500
vn 0.587600 -0.535000 -0.607100
vn 0.593900 -0.531600 -0.603900
vn 0.840900 0.235000 -0.487500
vn 0.765900 -0.342100 -0.544400
vn 0.589500 -0.514600 -0.622700
vn 0.558500 -0.425600 -0.712000
vn 0.617500 -0.499300 -0.607800
vn 0.568300 -0.524300 -0.634200
vn 0.582700 -0.500500 -0.640300
vn 0.526100 -0.582300 -0.619800
vn 0.616600 -0.514500 -0.595900
vn 0.560400 -0.556300 -0.613600
vn 0.560500 -0.551400 -0.618000
vn 0.425400 0.717600 -0.551400
vn 0.669200 0.208000 -0.713400
vn 0.210900 0.903200 -0.373700
vn 0.440100 -0.215600 -0.871700
vn 0.533300 -0.429400 -0.728900
vn 0.632500 -0.228300 -0.740100
vn 0.484400 0.265000 -0.833700
vn 0.557500 -0.379800 -0.738200
vn 0.190300 0.808700 -0.556500
vn 0.382900 -0.677900 -0.627600
vn 0.508400 -0.359900 -0.782300
vn 0.533300 -0.500100 -0.682200
vn 0.627200 -0.407700 -0.663600
vn 0.539500 0.150200 -0.828500
vn 0.305200 -0.073000 -0.949500
vn 0.435400 0.142900 -0.888800
vn 0.583000 0.045000 -0.811300
vn -0.062000 0.824500 -0.562400
vn 0.572000 0.222500 -0.789500
vn 0.754200 0.139900 -0.641600
vn 0.349600 0.089300 -0.932600
vn 0.196100 0.922000 -0.334000
vn 0.646500 0.186300 -0.739800
vn 0.669300 0.207800 -0.713300
vn 0.589900 -0.435100 -0.680200
vn 0.073900 0.997100 0.016300
vn 0.207600 0.809100 -0.549800
vn -0.056500 0.755600 -0.652600
usemtl None
s 1
f 1//1 2//2 3//3
f 4//4 5//5 6//6
f 7//7 8//8 9//9
f 3//3 10//10 11//11
f 12//12 8//8 13//13
f 14//14 15//15 16//16
f 17//17 18//18 19//19
f 9//9 20//20 7//7
f 21//21 22//22 4//4
f 20//20 9//9 23//23
f 24//24 20//20 23//23
f 25//25 26//26 2//2
f 27//27 20//20 24//24
f 28//28 6//6 15//15
f 24//24 29//29 27//27
f 30//30 7//7 20//20
f 31//31 32//32 33//33
f 4//4 34//34 5//5
f 12//12 34//34 8//8
f 6//6 35//35 21//21
f 36//36 37//37 38//38
f 39//39 40//40 41//41
f 42//42 43//43 44//44
f 1//1 3//3 45//45
f 32//32 31//31 13//13
f 12//12 13//13 31//31
f 46//46 5//5 47//47
f 47//47 12//12 40//40
f 34//34 9//9 8//8
f 12//12 5//5 34//34
f 31//31 26//26 41//41
f 20//20 27//27 30//30
f 48//48 49//49 35//35
f 9//9 4//4 22//22
f 48//48 35//35 28//28
f 50//50 51//51 46//46
f 6//6 21//21 4//4
f 34//34 4//4 9//9
f 45//45 52//52 53//53
f 41//41 25//25 54//54
f 5//5 43//43 6//6
f 22//22 23//23 9//9
f 30//30 8//8 7//7
f 33//33 11//11 10//10
f 45//45 53//53 55//55
f 56//56 54//54 57//57
f 2//2 10//10 3//3
f 52//52 45//45 3//3
f 43//43 42//42 15//15
f 46//46 39//39 50//50
f 43//43 46//46 51//51
f 58//58 37//59 59//60
f 56//56 39//39 54//54
f 28//28 15//15 14//14
f 2//2 26//26 10//10
f 2//2 1//1 60//61
f 48//48 28//28 61//62
f 58//58 59//60 49//49
f 43//43 15//15 6//6
f 25//25 41//41 26//26
f 5//5 46//46 43//43
f 31//31 41//41 40//40
f 6//6 28//28 35//35
f 47//47 40//40 39//39
f 33//33 10//10 26//26
f 39//39 56//56 50//50
f 31//31 33//33 26//26
f 12//12 47//47 5//5
f 46//46 47//47 39//39
f 51//51 50//50 62//63
f 41//41 54//54 39//39
f 33//33 32//32 11//11
f 1//1 45//45 55//55
f 31//31 40//40 12//12
f 59//60 35//35 49//49
f 49//49 48//48 61//62
