# Blender v2.76 (sub 0) OBJ File: ''
# www.blender.org
mtllib left atrium.001.mtl
o left_atrium.001_left_atrium_MESH.001
v 51.800774 -49.457962 -17.946625
v 52.286339 -49.205212 -17.509003
v 51.943516 -49.745823 -17.473831
v 52.630569 -48.587570 -17.609680
v 52.086922 -48.958717 -18.021530
v 51.213696 -50.728657 -17.558624
v 50.752213 -51.005413 -17.939804
v 50.854000 -50.509708 -18.268768
v 50.847134 -51.488342 -17.348419
v 48.646927 -51.684864 -20.233185
v 48.219162 -52.055367 -20.477524
v 48.272530 -51.602695 -20.833878
v 50.366570 -50.594395 -18.868698
v 50.337574 -51.087383 -18.440689
v 50.489574 -52.909786 -16.496811
v 50.279148 -53.396854 -16.327225
v 50.108170 -53.165367 -16.786331
v 50.710255 -53.109222 -15.998810
v 50.850464 -52.473526 -16.407623
v 51.204800 -52.486473 -15.900711
v 50.771835 -51.998920 -16.968369
v 50.459587 -52.497700 -16.930252
v 47.685795 -52.695621 -20.542603
v 48.404808 -52.375648 -19.913849
v 48.009312 -53.088348 -19.779312
v 49.972633 -51.070187 -18.966461
v 49.922680 -51.590023 -18.542221
v 49.411781 -51.573097 -19.271423
v 49.569691 -54.373608 -15.851715
v 49.831879 -53.931446 -16.435104
v 50.436710 -53.938431 -15.396072
v 50.019794 -50.619949 -19.328430
v 49.093208 -53.849285 -17.552872
v 48.763081 -54.590599 -17.251755
v 48.648003 -54.068901 -17.958191
v 52.179073 -48.449043 -18.369705
v 52.885647 -47.636921 -17.899948
v 51.394066 -50.988689 -17.059769
v 49.571548 -51.034832 -19.559845
v 49.093636 -51.325386 -19.950790
v 49.902832 -52.836937 -17.385056
v 49.592999 -53.549446 -17.140427
v 49.385834 -53.252411 -17.711914
v 48.901489 -53.562637 -18.092941
v 49.835514 -50.351173 -19.839111
v 49.335907 -50.697075 -20.205368
v 52.767254 -49.553955 -16.505264
v 53.371029 -49.080078 -15.874741
v 52.870998 -49.928261 -16.000626
v 48.886642 -51.902737 -19.691238
v 48.842091 -51.054806 -20.550522
v 48.499981 -52.854263 -19.326660
v 52.886837 -51.102386 -14.587097
v 52.586235 -50.999752 -15.380249
v 53.177704 -50.442432 -14.902786
v 51.293098 -49.701702 -18.423676
v 50.796314 -50.150436 -18.690689
v 51.289757 -51.943668 -16.297913
v 51.647163 -51.928284 -15.813629
v 51.733398 -51.411983 -16.183899
v 49.362923 -49.887970 -20.805588
v 48.810974 -50.357651 -21.159210
v 50.606781 -49.263756 -19.795685
v 51.159801 -48.913410 -19.355576
v 50.923927 -49.534836 -19.097488
v 51.659454 -48.617691 -18.937485
v 51.525471 -47.788441 -19.664444
v 51.637623 -52.530151 -15.253586
v 51.517025 -50.070129 -17.760971
v 48.646473 -53.270050 -18.726929
v 49.129982 -53.015472 -18.294174
v 51.340122 -49.186317 -18.847626
v 53.274071 -47.999977 -16.919479
v 53.036827 -48.590614 -17.040207
v 48.252819 -53.336918 -19.212311
v 52.632793 -51.561699 -14.808685
v 47.730743 -54.445858 -18.546860
v 48.292450 -53.864311 -18.634796
v 48.196991 -54.539341 -17.838669
v 49.250038 -54.221851 -16.979584
v 51.329418 -51.451523 -16.710205
v 52.267178 -52.160480 -14.574478
v 51.980228 -51.959652 -15.317978
v 51.786839 -50.337112 -17.130676
v 48.776436 -52.374844 -19.396439
v 49.721565 -52.513256 -17.945633
v 50.320690 -51.595211 -17.981705
v 52.716209 -49.120811 -16.989487
v 50.507244 -47.972923 -20.696518
v 50.661343 -48.485832 -20.449158
v 50.278831 -48.576756 -20.900452
v 51.720974 -49.064991 -18.431244
v 47.850838 -53.705948 -19.404083
v 53.196060 -49.739552 -15.104019
v 52.112003 -51.445778 -15.623520
v 52.514603 -47.527428 -18.461609
v 52.106594 -47.653145 -19.077072
v 49.990280 -49.135452 -20.690552
v 50.104321 -49.686676 -20.091873
v 52.211044 -50.898037 -16.005447
v 52.680008 -50.461033 -15.754791
v 50.950573 -48.618259 -19.922119
v 51.130833 -47.877666 -20.182175
v 51.800373 -50.875000 -16.600647
v 50.270630 -52.158489 -17.516312
v 47.470745 -54.283291 -19.123077
v 50.193684 -48.147690 -21.403595
v 49.704334 -48.779911 -21.447708
v 52.347691 -50.246655 -16.433655
v 48.298374 -50.433483 -21.452652
v 48.086559 -51.042461 -21.418793
v 52.308846 -49.703178 -17.004395
v 49.341164 -54.592091 -16.472519
v 49.570568 -51.979305 -18.663803
v 47.371941 -54.025288 -19.603531
v 48.929703 -52.681381 -18.891205
v 51.152382 -53.115387 -15.374237
v 50.381687 -50.027489 -19.386230
v 49.179195 -52.089909 -19.105011
v 49.362938 -52.454140 -18.502441
v 53.336906 -48.854725 -16.403961
v 47.279293 -53.620754 -19.987869
v 49.189880 -48.606014 -21.970047
v 51.001057 -53.527657 -14.881073
v 51.767982 -52.813881 -14.642700
vn 0.711600 -0.483400 -0.509800
vn 0.718100 -0.473000 -0.510500
vn 0.711300 -0.484200 -0.509600
vn 0.820600 -0.307000 -0.482000
vn 0.726600 -0.457900 -0.512200
vn 0.711300 -0.484200 -0.509500
vn 0.686500 -0.485500 -0.541300
vn 0.624200 -0.498600 -0.601600
vn 0.504000 -0.490000 -0.711300
vn 0.710600 -0.495300 -0.499700
vn 0.703400 -0.563100 -0.433800
vn 0.712300 -0.500800 -0.491800
vn 0.703700 -0.550400 -0.449200
vn 0.710000 -0.489000 -0.506800
vn 0.713000 -0.501800 -0.489800
vn 0.313400 -0.515700 -0.797400
vn 0.672500 -0.496300 -0.549000
vn 0.597800 -0.536300 -0.595800
vn 0.162000 -0.941200 0.296400
vn 0.656900 -0.677500 -0.330700
vn 0.591500 -0.800300 -0.098300
vn 0.709600 -0.482400 -0.513600
vn 0.662800 -0.564800 -0.491600
vn 0.372900 -0.897500 -0.235500
vn 0.561300 -0.700500 -0.440700
vn 0.799200 -0.252300 -0.545600
vn 0.906500 0.194400 -0.374900
vn 0.709900 -0.478800 -0.516400
vn 0.709200 -0.476800 -0.519400
vn 0.709400 -0.500100 -0.496700
vn 0.709800 -0.486500 -0.509500
vn 0.691700 -0.511700 -0.509600
vn 0.691700 -0.458700 -0.557800
vn 0.687000 -0.425500 -0.589000
vn 0.808500 -0.426500 -0.405500
vn 0.992700 -0.119500 -0.014600
vn 0.882400 -0.374300 -0.285100
vn 0.710000 -0.484600 -0.511000
vn 0.639900 -0.446900 -0.625100
vn 0.700800 -0.491900 -0.516600
vn 0.872500 -0.332700 0.357700
vn 0.844900 -0.440800 -0.303000
vn 0.960600 -0.260800 0.095900
vn 0.714400 -0.490600 -0.499000
vn 0.711400 -0.483800 -0.509800
vn 0.546800 -0.385600 -0.743200
vn 0.477700 -0.226600 -0.848800
vn 0.701400 -0.465700 -0.539600
vn 0.735000 -0.402800 -0.545400
vn 0.712600 -0.477900 -0.513700
vn 0.749600 -0.331700 -0.572800
vn 0.754100 0.022800 -0.656400
vn 0.766700 -0.572200 -0.291100
vn 0.700900 -0.500300 -0.508300
vn 0.710300 -0.485400 -0.509700
vn 0.714800 -0.468700 -0.519000
vn 0.975500 0.148900 -0.161700
vn 0.863000 -0.274900 -0.423800
vn 0.678200 -0.519500 -0.519700
vn 0.833400 -0.514300 -0.202100
vn 0.132500 -0.956800 -0.258900
vn 0.552500 -0.689200 -0.468700
vn 0.183000 -0.971000 -0.153800
vn 0.640100 -0.641400 -0.423000
vn 0.779000 -0.554200 0.293400
vn 0.766500 -0.529600 -0.363400
vn 0.709300 -0.485300 -0.511200
vn 0.758100 -0.434300 -0.486400
vn 0.576900 0.343900 -0.740900
vn 0.733700 -0.252500 -0.630900
vn 0.687800 -0.240300 -0.685000
vn 0.717700 -0.466200 -0.517400
vn 0.500800 -0.646200 -0.575800
vn 0.978200 -0.088900 0.187800
vn 0.726700 -0.484800 -0.486600
vn 0.817600 0.271300 -0.507800
vn 0.777900 0.123700 -0.616000
vn 0.582500 -0.511100 -0.632000
vn 0.666000 -0.464700 -0.583500
vn 0.730800 -0.470200 -0.494800
vn 0.861300 -0.391700 -0.323500
vn 0.752600 -0.284000 -0.594100
vn 0.688700 0.176100 -0.703300
vn 0.711700 -0.484000 -0.509100
vn 0.201200 -0.850700 -0.485700
vn 0.573700 -0.009000 -0.819000
vn 0.483200 -0.496500 -0.721200
vn 0.737000 -0.473600 -0.482300
vn 0.007200 0.073900 -0.997200
vn 0.276600 -0.299000 -0.913300
vn 0.714600 -0.484500 -0.504500
vn 0.426600 -0.894900 -0.131300
vn 0.204800 -0.760300 -0.616400
vn 0.710600 -0.485000 -0.509700
vn 0.708600 -0.660700 -0.247700
vn 0.707100 -0.481700 -0.517700
vn 0.944500 -0.193500 -0.265400
vn 0.209600 -0.655500 -0.725600
vn 0.306000 -0.346400 -0.886800
vn 0.508100 -0.822800 0.254900
vn 0.657100 -0.708900 0.256400
usemtl None
s 1
f 1//1 2//2 3//3
f 4//4 2//2 5//5
f 6//3 7//3 8//6
f 9//3 7//3 6//3
f 10//7 11//8 12//9
f 13//3 8//6 14//6
f 15//10 16//11 17//12
f 18//13 19//14 20//15
f 21//3 19//14 22//3
f 23//16 24//17 25//18
f 26//3 27//3 28//3
f 29//19 30//20 31//21
f 10//7 24//17 11//8
f 13//3 26//3 32//22
f 26//3 14//6 27//3
f 33//23 34//24 35//25
f 24//17 23//16 11//8
f 4//4 36//26 37//27
f 9//3 6//3 38//3
f 39//28 28//3 40//29
f 41//3 42//30 43//31
f 43//31 33//23 44//32
f 45//33 39//28 46//34
f 47//35 48//36 49//37
f 24//17 10//7 50//38
f 40//29 10//7 51//39
f 30//20 16//11 31//21
f 25//18 24//17 52//40
f 53//41 54//42 55//43
f 56//3 8//6 57//3
f 21//3 58//3 19//14
f 59//44 58//3 60//45
f 61//46 46//34 62//47
f 63//48 64//49 65//50
f 66//51 64//49 67//52
f 59//44 68//53 20//15
f 69//3 6//3 8//6
f 18//13 15//10 19//14
f 70//54 71//55 44//32
f 72//56 65//50 64//49
f 4//4 73//57 74//58
f 70//54 75//59 52//40
f 53//41 76//60 54//42
f 77//61 78//62 79//63
f 42//30 80//64 33//23
f 21//3 81//3 58//3
f 82//65 83//66 76//60
f 84//6 6//3 69//3
f 30//20 17//12 16//11
f 85//67 52//40 24//17
f 43//31 86//3 41//3
f 14//6 7//3 87//3
f 2//2 4//4 88//68
f 89//69 90//70 91//71
f 1//1 92//72 5//5
f 1//1 69//3 56//3
f 93//73 75//59 78//62
f 94//74 49//37 48//36
f 56//3 69//3 8//6
f 1//1 5//5 2//2
f 9//3 81//3 21//3
f 61//46 45//33 46//34
f 76//60 95//75 54//42
f 96//76 36//26 97//77
f 84//6 38//3 6//3
f 27//3 87//3 86//3
f 87//3 7//3 9//3
f 61//46 98//78 99//79
f 1//1 56//3 92//72
f 100//80 101//81 54//42
f 91//71 90//70 98//78
f 102//82 90//70 103//83
f 3//3 84//6 69//3
f 38//3 104//84 81//3
f 41//3 17//12 42//30
f 13//3 57//3 8//6
f 17//12 22//3 15//10
f 105//3 21//3 22//3
f 45//33 32//22 39//28
f 95//75 60//45 100//80
f 72//56 56//3 65//50
f 55//43 54//42 101//81
f 77//61 106//85 78//62
f 35//25 79//63 78//62
f 105//3 87//3 9//3
f 107//86 91//71 108//87
f 104//84 109//88 100//80
f 39//28 40//29 46//34
f 110//89 62//47 111//90
f 3//3 112//91 84//6
f 14//6 87//3 27//3
f 103//83 90//70 89//69
f 41//3 105//3 22//3
f 89//69 91//71 107//86
f 30//20 113//92 80//64
f 66//51 67//52 97//77
f 86//3 87//3 105//3
f 27//3 86//3 114//3
f 104//84 100//80 60//45
f 115//93 93//73 106//85
f 73//57 4//4 37//27
f 52//40 85//67 116//94
f 61//46 99//79 45//33
f 66//51 92//72 72//56
f 63//48 102//82 64//49
f 35//25 44//32 33//23
f 100//80 54//42 95//75
f 70//54 44//32 78//62
f 101//81 109//88 49//37
f 23//16 12//9 11//8
f 33//23 80//64 34//24
f 117//95 20//15 68//53
f 13//3 14//6 26//3
f 31//21 16//11 18//13
f 18//13 117//95 31//21
f 32//22 26//3 39//28
f 43//31 44//32 71//55
f 13//3 32//22 118//96
f 119//3 50//38 28//3
f 13//3 118//96 57//3
f 45//33 118//96 32//22
f 12//9 111//90 51//39
f 52//40 75//59 25//18
f 119//3 28//3 114//3
f 42//30 33//23 43//31
f 81//3 60//45 58//3
f 71//55 120//6 86//3
f 45//33 99//79 118//96
f 66//51 97//77 36//26
f 38//3 81//3 9//3
f 66//51 72//56 64//49
f 105//3 9//3 21//3
f 15//10 18//13 16//11
f 117//95 18//13 20//15
f 102//82 67//52 64//49
f 47//35 88//68 121//97
f 25//18 122//98 23//16
f 70//54 116//94 71//55
f 98//78 90//70 63//48
f 71//55 86//3 43//31
f 109//88 104//84 84//6
f 120//6 71//55 116//94
f 74//58 121//97 88//68
f 73//57 121//97 74//58
f 59//44 95//75 83//66
f 102//82 63//48 90//70
f 82//65 68//53 83//66
f 4//4 5//5 36//26
f 28//3 39//28 26//3
f 93//73 25//18 75//59
f 63//48 99//79 98//78
f 24//17 50//38 85//67
f 59//44 60//45 95//75
f 119//3 116//94 85//67
f 59//44 83//66 68//53
f 44//32 35//25 78//62
f 80//64 42//30 30//20
f 104//84 60//45 81//3
f 38//3 84//6 104//84
f 74//58 88//68 4//4
f 47//35 109//88 112//91
f 102//82 103//83 67//52
f 12//9 51//39 10//7
f 57//3 65//50 56//3
f 70//54 78//62 75//59
f 49//37 94//74 101//81
f 5//5 92//72 36//26
f 55//43 101//81 94//74
f 50//38 40//29 28//3
f 22//3 17//12 41//3
f 120//6 114//3 86//3
f 109//88 84//6 112//91
f 3//3 2//2 112//91
f 72//56 92//72 56//3
f 95//75 76//60 83//66
f 105//3 41//3 86//3
f 7//3 14//6 8//6
f 96//76 37//27 36//26
f 17//12 30//20 42//30
f 47//35 121//97 48//36
f 63//48 118//96 99//79
f 62//47 46//34 51//39
f 59//44 20//15 58//3
f 35//25 34//24 79//63
f 40//29 51//39 46//34
f 27//3 114//3 28//3
f 65//50 57//3 118//96
f 66//51 36//26 92//72
f 1//1 3//3 69//3
f 119//3 114//3 120//6
f 25//18 93//73 122//98
f 63//48 65//50 118//96
f 119//3 120//6 116//94
f 34//24 80//64 113//92
f 47//35 49//37 109//88
f 47//35 112//91 88//68
f 108//87 91//71 98//78
f 108//87 123//99 107//86
f 100//80 109//88 101//81
f 22//3 19//14 15//10
f 62//47 51//39 111//90
f 124//100 117//95 125//101
f 70//54 52//40 116//94
f 82//65 125//101 68//53
f 124//100 31//21 117//95
f 20//15 19//14 58//3
f 2//2 88//68 112//91
f 40//29 50//38 10//7
f 68//53 125//101 117//95
f 29//19 113//92 30//20
f 93//73 78//62 106//85
f 119//3 85//67 50//38
f 93//73 115//93 122//98
