# Blender v2.76 (sub 0) OBJ File: ''
# www.blender.org
mtllib Liver.002.mtl
o Liver.002_Liver.002_MESH
v -3.114278 10.189936 -4.735685
v -3.272649 9.971979 -4.113966
v -2.804261 10.445398 -4.599927
v -3.002736 10.409487 -5.400632
v -3.210564 10.168200 -5.126340
v -2.854897 10.510126 -5.084852
v -3.315972 10.170839 -5.543500
v -3.367684 9.860674 -4.757490
vn -0.721600 0.684400 0.104500
vn -0.760400 0.494500 0.421000
vn -0.685200 0.697600 0.209600
vn -0.646200 0.757300 0.094700
vn -0.702000 0.690700 0.173300
vn -0.707000 0.702900 0.077600
vn -0.626600 0.760400 0.170900
vn -0.702000 0.690800 0.173300
vn -0.856000 0.450700 0.253300
usemtl None
s 1
f 1//1 2//2 3//3
f 4//4 5//5 6//6
f 5//5 4//4 7//7
f 1//1 5//8 8//9
