# Blender v2.76 (sub 0) OBJ File: ''
# www.blender.org
mtllib Liver.004.mtl
o Liver.004_Liver_MESH.002
v -4.322670 15.246719 5.638659
v -4.219899 15.680847 5.336215
v -3.969868 15.323730 5.587572
v -4.971020 16.747627 3.705462
v -4.764004 16.975178 3.130007
v -4.824452 16.651981 3.716067
v -4.557816 16.554321 3.717135
v -4.192845 16.929096 3.095370
v -4.256402 16.528572 3.694003
v -4.548661 15.259953 5.723330
v -4.523278 15.654835 5.546557
v -4.929917 16.800327 3.530779
v -5.124497 16.625149 4.267565
v -5.084797 17.022152 3.459536
v -4.791230 16.473434 4.206179
v -4.907773 17.495144 2.652361
v -4.601582 17.318962 2.655886
v -5.060078 17.139423 3.199175
v -5.294972 17.470921 3.105471
v -4.927159 17.146122 3.071383
v -5.467396 18.230598 3.294192
v -5.327740 17.998230 3.423510
v -5.836426 18.709377 2.406558
v -5.219922 17.864201 2.377352
v -5.397366 17.895626 2.543978
v -4.885281 16.458397 4.055346
v -5.224492 17.041397 3.698260
v -5.433068 18.109142 2.715655
v -5.520779 18.267025 2.621554
v -5.492695 18.306896 1.986468
v -4.626843 16.378986 4.747286
v -4.893055 16.662998 5.047656
v -4.934800 16.653976 4.645556
v -4.331383 16.412441 4.243121
v -4.580761 15.288876 6.028002
v -4.468537 14.896336 6.182817
v -4.554207 15.347473 6.272615
v -3.736538 14.946507 5.940096
v -4.144593 15.038284 5.879015
v -4.027974 14.824486 6.077028
v -3.602883 14.325970 6.739092
v -4.197114 14.187077 6.935869
v -5.935093 18.695740 1.754016
vn -0.199400 -0.626400 -0.753600
vn -0.233400 -0.619200 -0.749800
vn 0.217200 -0.615400 -0.757700
vn -0.400600 -0.762300 -0.508300
vn -0.292100 -0.774200 -0.561500
vn -0.280900 -0.852000 -0.441800
vn -0.158400 -0.890300 -0.426900
vn -0.047400 -0.809600 -0.585100
vn 0.040500 -0.918900 -0.392500
vn -0.723500 -0.491400 -0.484900
vn -0.703100 -0.448700 -0.551700
vn -0.754300 -0.573600 -0.319200
vn -0.900200 -0.434600 0.029300
vn -0.675700 -0.625800 -0.389700
vn -0.276900 -0.958300 -0.070300
vn -0.435200 -0.699700 -0.566600
vn -0.208800 -0.751900 -0.625400
vn -0.452800 -0.711400 -0.537500
vn -0.891400 -0.416400 -0.178800
vn -0.654800 -0.596200 -0.464500
vn -0.833300 -0.552500 0.015700
vn -0.955600 -0.280100 0.091400
vn -0.759200 -0.630600 0.161400
vn -0.444300 -0.739000 -0.506400
vn -0.859100 -0.471100 -0.200200
vn -0.477500 -0.827700 -0.294800
vn -0.435300 -0.699700 -0.566600
vn -0.951500 -0.297800 -0.077200
vn -0.959300 -0.276000 0.059400
vn -0.825800 -0.563700 -0.016900
vn -0.647200 -0.694400 -0.314500
vn -0.647300 -0.694400 -0.314500
vn -0.575200 -0.793000 -0.200600
vn -0.874500 -0.476700 -0.089400
vn -0.762100 -0.619500 0.188300
vn -0.100200 -0.961900 -0.254500
vn -0.947000 -0.297200 -0.121700
vn -0.915500 -0.402100 0.009700
vn -0.533100 -0.562900 -0.631600
vn 0.139000 -0.718500 -0.681500
vn -0.099700 -0.770600 -0.629400
vn -0.182100 -0.767400 -0.614800
vn 0.139100 -0.718400 -0.681500
vn 0.434700 -0.780200 -0.449800
vn -0.900200 -0.434500 0.029300
vn -0.258000 -0.822600 -0.506700
vn -0.107600 -0.971100 -0.213100
usemtl None
s 1
f 1//1 2//2 3//3
f 4//4 5//5 6//6
f 7//7 8//8 9//9
f 10//10 11//11 1//1
f 12//12 13//13 14//14
f 7//7 15//15 6//6
f 5//5 16//16 17//17
f 5//5 18//18 16//16
f 5//5 17//17 8//8
f 14//14 19//19 20//20
f 21//21 22//22 23//23
f 24//24 19//19 25//25
f 13//13 12//12 26//26
f 16//27 20//20 19//19
f 14//14 13//13 27//28
f 28//29 21//21 29//30
f 19//19 24//24 16//27
f 21//21 28//29 22//22
f 24//24 25//25 30//31
f 28//29 29//30 30//32
f 29//30 23//23 30//32
f 14//14 20//20 12//12
f 31//33 32//34 33//35
f 15//15 34//36 31//33
f 2//2 1//1 11//11
f 35//37 36//38 37//39
f 3//3 38//40 39//41
f 40//42 38//43 41//44
f 8//8 7//7 5//5
f 15//15 7//7 34//36
f 7//7 9//9 34//36
f 14//14 27//28 19//19
f 5//5 4//4 18//18
f 13//45 15//15 33//35
f 4//4 6//6 26//26
f 7//7 6//6 5//5
f 31//33 33//35 15//15
f 10//10 35//37 11//11
f 41//44 42//46 40//42
f 43//47 30//32 23//23
