# Blender v2.76 (sub 0) OBJ File: ''
# www.blender.org
mtllib table.mtl
o pCube1
v 0.462223 -0.075591 0.981649
v 0.462223 -0.075591 0.969223
v 0.462223 -0.013462 0.969223
v 0.462223 -0.013462 0.981649
v -0.469706 -0.013462 0.969223
v -0.469706 -0.013462 0.981649
v -0.469706 -0.075590 0.969223
v -0.469706 -0.075590 0.981649
v 0.449798 -0.075591 -0.882211
v 0.449798 -0.075591 -0.894637
v 0.449798 -0.013462 -0.894637
v 0.449798 -0.013462 -0.882211
v -0.482132 -0.013462 -0.894637
v -0.482132 -0.013462 -0.882211
v -0.482132 -0.075590 -0.894637
v -0.482132 -0.075590 -0.882211
v -0.402817 -0.698196 -0.821495
v -0.402817 -0.698196 -0.883623
v -0.402816 -0.076909 -0.883623
v -0.402816 -0.076909 -0.821495
v -0.464945 -0.076909 -0.883623
v -0.464945 -0.076909 -0.821495
v -0.464945 -0.698196 -0.883623
v -0.464945 -0.698196 -0.821495
v 0.462223 -0.075591 0.969223
v 0.462223 -0.075591 -0.894637
v 0.462223 -0.013462 -0.894637
v 0.462223 -0.013462 0.969223
v 0.449798 -0.013462 -0.894637
v 0.449798 -0.013462 0.969223
v 0.449798 -0.075591 -0.894637
v 0.449798 -0.075591 0.969223
v -0.407578 -0.634748 0.969223
v -0.407578 -0.634748 0.907094
v -0.407578 -0.013462 0.907094
v -0.407578 -0.013462 0.969223
v -0.469706 -0.013462 0.907094
v -0.469706 -0.013462 0.969223
v -0.469706 -0.634748 0.907094
v -0.469706 -0.634748 0.969223
v 0.494544 -0.012500 1.048460
v 0.494544 -0.012500 -0.951540
v 0.494544 0.012500 -0.951540
v 0.494544 0.012500 1.048460
v -0.505456 0.012500 -0.951540
v -0.505456 0.012500 1.048460
v -0.505456 -0.012500 -0.951540
v -0.505456 -0.012500 1.048460
v -0.464945 -0.076909 0.980236
v -0.464945 -0.076909 -0.883623
v -0.464945 -0.014781 -0.883623
v -0.464945 -0.014781 0.980236
v -0.477371 -0.014781 -0.883623
v -0.477371 -0.014781 0.980236
v -0.477371 -0.076909 -0.883623
v -0.477371 -0.076909 0.980236
v 0.449797 -0.696877 -0.820082
v 0.449797 -0.696877 -0.882211
v 0.449798 -0.075591 -0.882211
v 0.449798 -0.075591 -0.820082
v 0.387669 -0.075591 -0.882211
v 0.387669 -0.075591 -0.820082
v 0.387669 -0.696877 -0.882211
v 0.387669 -0.696877 -0.820082
v 0.449798 -0.696877 0.969223
v 0.449798 -0.696877 0.907094
v 0.449798 -0.075591 0.907094
v 0.449798 -0.075591 0.969223
v 0.387669 -0.075591 0.907094
v 0.387669 -0.075591 0.969223
v 0.387669 -0.696877 0.907094
v 0.387669 -0.696877 0.969223
vt 0.752351 0.812834
vt 0.752351 0.808296
vt 0.775040 0.808296
vt 0.775040 0.812834
vt 0.796454 0.695865
vt 0.791102 0.695837
vt 0.791208 0.389223
vt 0.796559 0.389252
vt 0.798535 0.802952
vt 0.798535 0.807489
vt 0.775847 0.807489
vt 0.775847 0.802952
vt 0.784944 0.389223
vt 0.790295 0.389252
vt 0.790189 0.695865
vt 0.784838 0.695837
vt 0.755078 0.362002
vt 0.755078 0.000403
vt 0.777767 0.000403
vt 0.777767 0.362002
vt 0.754272 0.000403
vt 0.754272 0.362002
vt 0.731583 0.362002
vt 0.731583 0.000403
vt 0.752351 0.807489
vt 0.752351 0.802952
vt 0.775040 0.802952
vt 0.775040 0.807489
vt 0.783925 0.695866
vt 0.778574 0.695838
vt 0.778680 0.389223
vt 0.784031 0.389252
vt 0.798535 0.808296
vt 0.798535 0.812834
vt 0.775847 0.812834
vt 0.775847 0.808296
vt 0.797366 0.389223
vt 0.802718 0.389250
vt 0.802718 0.695864
vt 0.797366 0.695838
vt 0.755079 0.724408
vt 0.755078 0.362809
vt 0.777767 0.362809
vt 0.777767 0.724408
vt 0.754272 0.389221
vt 0.754272 0.750820
vt 0.731583 0.750820
vt 0.731583 0.389221
vt 0.000403 0.967725
vt 0.000403 0.945037
vt 0.227288 0.945037
vt 0.227288 0.967725
vt 0.821135 0.099250
vt 0.798447 0.099250
vt 0.798447 0.075144
vt 0.821135 0.075144
vt 0.846236 0.921847
vt 0.846236 0.944536
vt 0.619351 0.944536
vt 0.619351 0.921847
vt 0.798447 0.025317
vt 0.821135 0.025317
vt 0.821135 0.049423
vt 0.798447 0.049423
vt 0.000403 0.944230
vt 0.000403 0.920124
vt 0.227289 0.920124
vt 0.227289 0.944230
vt 0.619351 0.896127
vt 0.619351 0.872020
vt 0.846236 0.872020
vt 0.846236 0.896127
vt 0.000403 0.825030
vt 0.681059 0.825030
vt 0.681059 0.847718
vt 0.000403 0.847718
vt 0.434890 0.992028
vt 0.868514 0.992029
vt 0.868569 0.999597
vt 0.434945 0.999596
vt 0.000403 0.801534
vt 0.681058 0.801534
vt 0.681058 0.824223
vt 0.000403 0.824223
vt 0.455787 0.983653
vt 0.889412 0.983652
vt 0.889467 0.991220
vt 0.455843 0.991221
vt 0.728856 0.807773
vt 0.728856 0.802952
vt 0.751544 0.802952
vt 0.751544 0.807773
vt 0.705361 0.807773
vt 0.705361 0.802952
vt 0.728049 0.802952
vt 0.728049 0.807773
vt 0.731583 0.777231
vt 0.731583 0.754543
vt 0.958468 0.754543
vt 0.958468 0.777231
vt 0.801262 0.720779
vt 0.778574 0.720779
vt 0.778574 0.696673
vt 0.801262 0.696673
vt 0.981964 0.728131
vt 0.981964 0.750820
vt 0.755078 0.750820
vt 0.755078 0.728131
vt 0.798447 0.000403
vt 0.821135 0.000403
vt 0.821135 0.024510
vt 0.798447 0.024510
vt 0.228096 0.919317
vt 0.228096 0.895210
vt 0.454981 0.895210
vt 0.454981 0.919317
vt 0.000403 0.919317
vt 0.000403 0.895210
vt 0.227289 0.895210
vt 0.227289 0.919317
vt 0.000403 0.872020
vt 0.618498 0.872020
vt 0.618544 0.882808
vt 0.000449 0.882808
vt 0.000403 0.389221
vt 0.730776 0.389221
vt 0.730776 0.777231
vt 0.000403 0.777231
vt 0.000403 0.883615
vt 0.618498 0.883615
vt 0.618544 0.894403
vt 0.000449 0.894403
vt 0.000403 0.000403
vt 0.730776 0.000403
vt 0.730776 0.388414
vt 0.000403 0.388414
vt 0.788511 0.388417
vt 0.788510 0.000403
vt 0.797640 0.000403
vt 0.797640 0.388417
vt 0.787703 0.000403
vt 0.787704 0.388417
vt 0.778574 0.388417
vt 0.778574 0.000403
vt 0.000403 0.848525
vt 0.681058 0.848525
vt 0.681058 0.871214
vt 0.000403 0.871214
vt 0.000403 0.992028
vt 0.434028 0.992029
vt 0.434083 0.999597
vt 0.000459 0.999596
vt 0.000403 0.778038
vt 0.681059 0.778039
vt 0.681059 0.800727
vt 0.000403 0.800727
vt 0.455787 0.975277
vt 0.889412 0.975277
vt 0.889467 0.982845
vt 0.455843 0.982845
vt 0.778574 0.726407
vt 0.778574 0.721586
vt 0.801262 0.721586
vt 0.801262 0.726407
vt 0.681865 0.807773
vt 0.681865 0.802952
vt 0.704554 0.802952
vt 0.704554 0.807773
vt 0.000403 0.991221
vt 0.000403 0.968532
vt 0.227288 0.968532
vt 0.227288 0.991221
vt 0.821135 0.124163
vt 0.798447 0.124163
vt 0.798447 0.100057
vt 0.821135 0.100057
vt 0.454981 0.968532
vt 0.454981 0.991221
vt 0.228096 0.991221
vt 0.228096 0.968532
vt 0.798447 0.124970
vt 0.821135 0.124970
vt 0.821135 0.149077
vt 0.798447 0.149077
vt 0.681865 0.802145
vt 0.681865 0.778038
vt 0.908751 0.778038
vt 0.908751 0.802145
vt 0.619351 0.921040
vt 0.619351 0.896934
vt 0.846236 0.896934
vt 0.846236 0.921040
vt 0.228096 0.967725
vt 0.228096 0.945037
vt 0.454981 0.945037
vt 0.454981 0.967725
vt 0.821135 0.074337
vt 0.798447 0.074337
vt 0.798447 0.050230
vt 0.821135 0.050230
vt 0.846236 0.945343
vt 0.846236 0.968031
vt 0.619351 0.968031
vt 0.619351 0.945343
vt 0.731583 0.364307
vt 0.754272 0.364307
vt 0.754272 0.388414
vt 0.731583 0.388414
vt 0.228096 0.944230
vt 0.228096 0.920124
vt 0.454981 0.920124
vt 0.454981 0.944230
vt 0.681865 0.849136
vt 0.681865 0.825030
vt 0.908751 0.825030
vt 0.908751 0.849136
vn 1.000000 0.000000 0.000000
vn 0.000000 1.000000 0.000000
vn -1.000000 0.000000 0.000000
vn -0.000000 -1.000000 0.000000
vn -0.000000 0.000000 -1.000000
vn -0.000000 0.000000 1.000000
usemtl initialShadingGroup
s 1
f 1/1/1 2/2/1 3/3/1 4/4/1
f 4/5/2 3/6/2 5/7/2 6/8/2
f 6/9/3 5/10/3 7/11/3 8/12/3
f 8/13/4 7/14/4 2/15/4 1/16/4
f 2/17/5 7/18/5 5/19/5 3/20/5
f 8/21/6 1/22/6 4/23/6 6/24/6
f 9/25/1 10/26/1 11/27/1 12/28/1
f 12/29/2 11/30/2 13/31/2 14/32/2
f 14/33/3 13/34/3 15/35/3 16/36/3
f 16/37/4 15/38/4 10/39/4 9/40/4
f 10/41/5 15/42/5 13/43/5 11/44/5
f 16/45/6 9/46/6 12/47/6 14/48/6
f 17/49/1 18/50/1 19/51/1 20/52/1
f 20/53/2 19/54/2 21/55/2 22/56/2
f 22/57/3 21/58/3 23/59/3 24/60/3
f 24/61/4 23/62/4 18/63/4 17/64/4
f 18/65/5 23/66/5 21/67/5 19/68/5
f 24/69/6 17/70/6 20/71/6 22/72/6
f 25/73/1 26/74/1 27/75/1 28/76/1
f 28/77/2 27/78/2 29/79/2 30/80/2
f 30/81/3 29/82/3 31/83/3 32/84/3
f 32/85/4 31/86/4 26/87/4 25/88/4
f 26/89/5 31/90/5 29/91/5 27/92/5
f 32/93/6 25/94/6 28/95/6 30/96/6
f 33/97/1 34/98/1 35/99/1 36/100/1
f 36/101/2 35/102/2 37/103/2 38/104/2
f 38/105/3 37/106/3 39/107/3 40/108/3
f 40/109/4 39/110/4 34/111/4 33/112/4
f 34/113/5 39/114/5 37/115/5 35/116/5
f 40/117/6 33/118/6 36/119/6 38/120/6
f 41/121/1 42/122/1 43/123/1 44/124/1
f 44/125/2 43/126/2 45/127/2 46/128/2
f 46/129/3 45/130/3 47/131/3 48/132/3
f 48/133/4 47/134/4 42/135/4 41/136/4
f 42/137/5 47/138/5 45/139/5 43/140/5
f 48/141/6 41/142/6 44/143/6 46/144/6
f 49/145/1 50/146/1 51/147/1 52/148/1
f 52/149/2 51/150/2 53/151/2 54/152/2
f 54/153/3 53/154/3 55/155/3 56/156/3
f 56/157/4 55/158/4 50/159/4 49/160/4
f 50/161/5 55/162/5 53/163/5 51/164/5
f 56/165/6 49/166/6 52/167/6 54/168/6
f 57/169/1 58/170/1 59/171/1 60/172/1
f 60/173/2 59/174/2 61/175/2 62/176/2
f 62/177/3 61/178/3 63/179/3 64/180/3
f 64/181/4 63/182/4 58/183/4 57/184/4
f 58/185/5 63/186/5 61/187/5 59/188/5
f 64/189/6 57/190/6 60/191/6 62/192/6
f 65/193/1 66/194/1 67/195/1 68/196/1
f 68/197/2 67/198/2 69/199/2 70/200/2
f 70/201/3 69/202/3 71/203/3 72/204/3
f 72/205/4 71/206/4 66/207/4 65/208/4
f 66/209/5 71/210/5 69/211/5 67/212/5
f 72/213/6 65/214/6 68/215/6 70/216/6
